# xmcd CD database file
#
# Track frame offsets:
#	150
#	16299
#	35778
#	54420
#	71509
#	83603
#	102537
#	113745
#	130149
#	156355
#	177232
#	193946
#
# Disc length: 2802 seconds
#
# Revision: 0
# Processed by: cddbd v1.5.2PL0 Copyright (c) Steve Scherf et al.
# Submitted via: CDex 1.51
#
DISCID=a20af00c
DTITLE=BIG BLUES - Big Blues - Blues Music For Kids
DYEAR=1996
DGENRE=Blues
TTITLE0=Michelle Shocked - Flying Lesson
TTITLE1=The Fabulous Thunderbirds - Zip-A-Dee-Doo-Dah
TTITLE2=Buckwheat Zydeco - Skip To My Blues
TTITLE3=Maria Muldaur - Candy Store Blues
TTITLE4=Catfish Hodge - Pancake Man
TTITLE5=Rita Coolidge - Late For School Blues
TTITLE6=Sonny Terry - Pick A Bale O' Cotton
TTITLE7=Taj Mahal - Funky Bluesy ABC's
TTITLE8=B.B. King - Rainy Day Blues
TTITLE9=Maria Muldaur - Waggy Tailed Dog
TTITLE10=Taj Mahal - Fishin' Blues
TTITLE11=Jimmy Witherspoon - There Wouldn't Be A Me
EXTD=YEAR: 1996
EXTT0=
EXTT1=
EXTT2=
EXTT3=
EXTT4=
EXTT5=
EXTT6=
EXTT7=
EXTT8=
EXTT9=
EXTT10=
EXTT11=
PLAYORDER=
